<svg width="84" height="85" viewBox="0 0 84 85" fill="none" xmlns="http://www.w3.org/2000/svg">
<path d="M22.1901 18.3723C23.6553 17.0757 25.2664 16.4799 26.8495 16.6504C27.5758 16.7292 28.2566 16.9629 28.873 17.3448C31.5031 18.9743 32.76 23.2609 32.0004 28.0121C31.0582 33.8966 27.5319 38.0477 23.7982 37.6678C23.0472 37.5917 22.3313 37.3459 21.6708 36.9367C18.992 35.277 17.5674 31.1774 18.1262 26.7358C18.5508 23.3752 20.0699 20.249 22.1901 18.3723Z" fill="#D7CFEA" fill-opacity="0.5"/>
<path d="M58.8438 44.6432C62.2984 41.5618 66.3863 40.5865 69.0164 42.216C69.6327 42.5979 70.1619 43.1138 70.5886 43.7493C71.5179 45.1354 71.8426 46.9305 71.5288 48.9404C71.0742 51.8491 69.3108 54.824 66.8109 56.8988C63.5058 59.6389 59.485 60.3648 56.8062 58.7051C56.1458 58.296 55.5895 57.7536 55.1525 57.0937C52.979 53.8138 54.5659 48.4611 58.8438 44.6432Z" fill="#D7CFEA" fill-opacity="0.5"/>
<path d="M53.2867 40.4762C53.0369 40.3367 52.7949 40.1771 52.5675 40.0022C51.231 38.9752 50.3698 37.4015 50.0766 35.4508C49.6038 32.3031 50.9561 28.6716 53.1534 25.4354C56.5354 20.4455 61.2785 18.0962 64.8724 20.1047C64.8724 20.1047 65.3723 20.4159 65.6129 20.5997C67.0713 21.722 68.0133 23.4556 68.337 25.6127C68.8063 28.7412 67.8783 32.3887 65.855 35.3698C62.5113 40.3034 56.9908 42.5461 53.2867 40.4762Z" fill="#D7CFEA" fill-opacity="0.5"/>
<path d="M43.4853 39.9283C51.8911 45.1362 54.5282 61.066 48.9886 71.3623C47.3357 74.4345 44.5703 76.0161 42.6155 76.1553C40.2015 76.3268 38.71 76.0575 36.1574 74.476C33.1244 72.5969 32.9184 70.9513 32.0389 69.067C31.4027 67.7047 30.8534 66.5275 29.594 65.7473C28.3345 64.967 27.1099 65.0451 25.6924 65.135C23.7321 65.2598 22.3012 65.8913 19.268 64.0121C16.7155 62.4307 15.7525 61.1793 14.6838 58.8502C13.8188 56.9639 13.7125 53.6032 15.3654 50.5309C20.9051 40.2346 35.0795 34.7205 43.4853 39.9283Z" fill="#D7CFEA" fill-opacity="0.5"/>
<path d="M38.873 31.483C38.6181 31.3593 38.3683 31.2139 38.1309 31.0516C34.6083 28.6444 33.6579 22.3924 35.9677 16.8186C37.3618 13.4478 39.8418 10.7616 42.601 9.6335C44.5038 8.85573 46.2985 8.87472 47.9336 9.66899C48.2024 9.80055 48.7645 10.1251 48.7645 10.1251C52.1823 12.4608 52.6721 18.0174 50.336 23.6551C48.8228 27.3153 46.5684 30.3877 43.7918 31.5222C42.0708 32.225 40.3701 32.2115 38.873 31.483Z" fill="#D7CFEA" fill-opacity="0.5"/>
</svg>
