<svg width="85" height="111" viewBox="0 0 85 111" fill="none" xmlns="http://www.w3.org/2000/svg">
<g clip-path="url(#clip0_76_11339)">
<path d="M22.9315 111.006C17.0391 101.261 20.0647 71.342 28.3526 53.9401C37.2681 35.1119 45.5933 26.3001 68.2643 11.9586C66.7345 11.3629 65.4319 11.0091 64.3283 10.4941C63.0454 9.96047 61.6948 9.38342 60.5869 8.57693C60.2482 8.35979 60.032 7.35499 60.2267 6.90226C60.4213 6.44954 61.3328 6.07137 61.759 6.15208C65.7979 7.00873 69.7494 8.00182 73.8123 8.97012C75.1149 9.32389 75.6654 10.2543 75.2608 11.6311C73.5022 16.76 71.8115 21.9324 69.9415 27.086C69.4888 28.2396 68.4306 29.2938 67.556 30.6581C65.3427 27.6992 67.2557 25.4606 67.6475 23.2092C68.0152 20.8463 68.8092 18.564 69.5268 15.6553C62.1035 18.8853 56.0591 23.0955 50.6767 28.2113C30.8657 46.8887 22.3534 70.3066 22.5698 97.1064C22.6215 100.604 23.0752 104.072 23.2383 107.545C23.096 108.512 22.9974 109.412 22.9315 111.006Z" fill="#A7D8F0"/>
</g>
<defs>
<clipPath id="clip0_76_11339">
<rect width="113.498" height="27.2395" fill="white" transform="translate(0 96.3049) rotate(-57.3382)"/>
</clipPath>
</defs>
</svg>
