<svg width="84" height="85" viewBox="0 0 84 85" fill="none" xmlns="http://www.w3.org/2000/svg">
<path d="M62.1751 18.3517C60.71 17.0552 59.0988 16.4594 57.5157 16.6299C56.7895 16.7087 56.1086 16.9424 55.4922 17.3243C52.8621 18.9538 51.6053 23.2404 52.3648 27.9916C53.3071 33.8761 56.8334 38.0272 60.5671 37.6473C61.318 37.5712 62.0339 37.3254 62.6944 36.9161C65.3732 35.2565 66.7978 31.1568 66.239 26.7153C65.8144 23.3547 64.2953 20.2285 62.1751 18.3517Z" fill="#D7CFEA" fill-opacity="0.5"/>
<path d="M25.5215 44.6226C22.0669 41.5411 17.979 40.5659 15.3489 42.1954C14.7325 42.5772 14.2033 43.0932 13.7766 43.7287C12.8473 45.1148 12.5227 46.9099 12.8365 48.9198C13.291 51.8285 15.0544 54.8034 17.5543 56.8782C20.8594 59.6182 24.8802 60.3441 27.559 58.6845C28.2194 58.2753 28.7757 57.733 29.2127 57.073C31.3862 53.7931 29.7993 48.4405 25.5215 44.6226Z" fill="#D7CFEA" fill-opacity="0.5"/>
<path d="M31.0805 40.4557C31.3303 40.3162 31.5723 40.1566 31.7997 39.9817C33.1362 38.9547 33.9974 37.381 34.2905 35.4303C34.7634 32.2826 33.4111 28.6511 31.2138 25.4149C27.8318 20.425 23.0887 18.0757 19.4948 20.0841C19.4948 20.0841 18.9949 20.3954 18.7542 20.5792C17.2958 21.7015 16.3538 23.435 16.0301 25.5922C15.5609 28.7207 16.4889 32.3682 18.5122 35.3493C21.8559 40.2829 27.3764 42.5256 31.0805 40.4557Z" fill="#D7CFEA" fill-opacity="0.5"/>
<path d="M40.8819 39.9077C32.4761 45.1155 29.839 61.0453 35.3786 71.3417C37.0315 74.4139 39.7969 75.9954 41.7517 76.1347C44.1657 76.3062 45.6571 76.0369 48.2097 74.4554C51.2428 72.5763 51.4488 70.9306 52.3282 69.0464C52.9645 67.684 53.5138 66.5069 54.7732 65.7266C56.0326 64.9464 57.2572 65.0245 58.6747 65.1144C60.6351 65.2392 62.066 65.8707 65.0992 63.9915C67.6517 62.4101 68.6147 61.1587 69.6834 58.8296C70.5484 56.9432 70.6547 53.5825 69.0018 50.5103C63.4621 40.214 49.2877 34.6998 40.8819 39.9077Z" fill="#D7CFEA" fill-opacity="0.5"/>
<path d="M45.4922 31.4625C45.7471 31.3388 45.9969 31.1934 46.2343 31.0311C49.7569 28.6239 50.7073 22.3719 48.3976 16.7981C47.0034 13.4273 44.5234 10.7411 41.7642 9.61299C39.8614 8.83522 38.0667 8.85421 36.4316 9.64848C36.1629 9.78005 35.6008 10.1046 35.6008 10.1046C32.1829 12.4403 31.6932 17.9969 34.0292 23.6346C35.5425 27.2948 37.7969 30.3672 40.5735 31.5017C42.2945 32.2045 43.9951 32.191 45.4922 31.4625Z" fill="#D7CFEA" fill-opacity="0.5"/>
</svg>
