<svg width="201" height="203" viewBox="0 0 201 203" fill="none" xmlns="http://www.w3.org/2000/svg">
<g clip-path="url(#clip0_76_11337)">
<path d="M71.5014 163.168C72.2686 163.666 72.4557 163.971 72.7891 164.104C96.7102 167.902 118.877 163.396 138.314 148.574C143.232 144.844 147.081 139.917 149.816 134.202C155.785 122.002 153.221 107.968 143.41 98.6719C138.323 93.7981 132.606 90.0264 125.435 89.0394C122.967 91.268 120.586 93.5696 118.09 95.4783C114.004 98.5726 109.376 100.023 104.21 98.9416C100.364 98.2291 97.7616 96.0391 97.5439 93.4804C97.258 90.122 99.306 87.6884 102.116 86.6383C106.018 85.171 110.121 84.1696 114.164 83.415C116.782 82.9455 119.614 83.1018 122.273 83.1121C129.063 72.0495 123.291 60.0662 108.749 54.807C107.232 55.9057 105.642 57.0912 104.037 58.1169C97.9871 61.7849 91.486 62.9951 84.7449 60.4402C82.1645 59.4565 79.7762 57.8921 79.5771 54.6068C79.4461 52.1211 81.4941 49.6875 84.93 48.4218C90.4038 46.4956 96.0545 46.6483 101.673 47.3676C103.632 47.6804 105.592 47.9932 107.478 48.3929C118.543 31.7224 113.992 9.48337 95.5127 4.32516C96.5503 3.26824 97.2681 2.23915 98.0539 2.00966C98.9997 1.76626 100.247 2.22162 101.174 2.70481C109.718 7.51935 115.84 14.1557 116.944 24.2897C117.83 31.865 116.597 39.1414 113.825 46.3101C113.427 47.3114 113.029 48.3127 112.717 49.3869C112.644 49.4738 112.745 49.7067 112.872 50.2595C113.726 50.8296 114.68 51.6326 115.781 52.2618C128.942 60.2189 132.381 68.4581 128.617 83.8488C129.951 84.3772 131.458 85.0515 132.952 85.566C141.533 88.9273 148.359 94.3747 153.224 102.329C161.17 115.251 160.311 130.711 150.999 143.362C145.947 150.246 139.553 155.555 132.091 159.668C114.004 169.539 94.9073 173.214 74.4902 168.95C73.4304 168.8 72.3571 168.491 71.2974 168.342C71.1375 168.355 70.9045 168.456 70.2054 168.759C72.5698 171.936 75.5653 174.012 78.4877 176.174C81.2501 178.35 84.2456 180.425 87.3414 182.734C85.1795 184.774 83.2336 184.621 81.32 183.902C79.1461 182.963 76.8259 182.199 75.0177 180.826C70.1868 177.057 65.3423 173.129 60.7904 168.853C57.2795 165.453 57.9207 162.578 62.1289 160.923C71.0982 157.484 80.1542 154.119 89.2102 150.753C90.6951 150.221 92.2073 150.009 94.1856 149.595C94.2248 152.894 92.3605 153.701 90.6561 154.494C84.2774 157.143 78.159 160.011 71.5014 163.168ZM84.3739 54.1894C91.0181 58.4443 97.9666 57.7591 102.762 52.5893C96.5768 51.8387 90.7849 50.9733 84.3739 54.1894ZM102.359 92.3363C108.502 95.4266 113.856 93.9941 117.797 88.2541C112.16 88.2614 107.103 88.4598 102.359 92.3363Z" fill="#A7D8F0"/>
</g>
<defs>
<clipPath id="clip0_76_11337">
<rect width="132.095" height="154.111" fill="white" transform="translate(99.2266) rotate(40.0808)"/>
</clipPath>
</defs>
</svg>
