<svg width="54" height="61" viewBox="0 0 54 61" fill="none" xmlns="http://www.w3.org/2000/svg">
<g clip-path="url(#clip0_76_10214)">
<path d="M19.5648 2.10784C18.8218 2.75059 17.9822 3.25074 17.3512 3.95634C16.4522 4.98252 15.6177 6.10376 15.0072 7.3507C11.1862 15.0087 10.044 23.1399 12.7546 31.2255C15.5619 39.4538 21.531 44.9822 30.1783 47.0977C34.5181 48.1793 38.9289 48.241 43.3499 47.6019C44.1608 47.4682 44.9242 47.3668 46.2762 47.2131C45.318 48.7653 44.5955 49.9494 43.8254 51.1657C43.9697 51.2761 44.0664 51.4187 44.2428 51.5766C44.6076 51.3986 45.0368 51.3157 45.337 51.0426C46.9026 49.7724 48.4361 48.4547 49.9695 47.137C50.9652 46.2534 52.0406 45.3851 51.7096 43.8747C51.3938 42.2845 49.972 41.722 48.6165 41.4617C46.735 41.1417 44.7756 41.0134 42.8484 40.9326C42.4344 40.9358 42.0409 41.4803 41.6134 41.7703C41.9036 42.198 42.1158 42.8175 42.4992 42.9739C43.697 43.4106 44.9405 43.6081 46.2486 43.9007C46.1383 44.0448 46.1078 44.2043 46.0281 44.189C33.0641 47.5693 21.6835 44.1847 15.4251 32.6066C15.1179 32.0515 14.8583 31.4642 14.6936 30.8125C12.0881 21.9616 12.9571 13.5299 17.667 5.54654C18.2792 4.50664 19.1952 3.60774 19.9992 2.64599C19.8702 2.45587 19.6938 2.29796 19.5648 2.10784Z" fill="#D7CFEA"/>
</g>
<defs>
<clipPath id="clip0_76_10214">
<rect width="54.9762" height="26.31" fill="white" transform="matrix(0.561349 0.827579 0.827579 -0.561349 0.582031 14.9839)"/>
</clipPath>
</defs>
</svg>
