<svg width="58" height="75" viewBox="0 0 58 75" fill="none" xmlns="http://www.w3.org/2000/svg">
<g clip-path="url(#clip0_76_9786)">
<path d="M32.0793 1.73717C33.1067 2.36774 34.2229 2.80642 35.1272 3.53535C36.4198 4.59918 37.6532 5.79095 38.6404 7.17943C44.7897 15.6926 47.7893 25.3113 46.1148 35.6409C44.3515 46.1624 38.2229 54.0434 28.1727 58.3243C23.1329 60.4967 17.8041 61.4484 12.3239 61.5535C11.3154 61.5529 10.3709 61.5819 8.70313 61.6646C10.1721 63.3536 11.2824 64.6437 12.4566 65.9634C12.3039 66.1257 12.2151 66.3176 12.0329 66.5439C11.5558 66.4009 11.0197 66.3858 10.6018 66.1149C8.45348 64.8882 6.33473 63.5975 4.21597 62.3067C2.83463 61.4348 1.35979 60.5973 1.46034 58.7025C1.52656 56.7142 3.13628 55.7504 4.72589 55.1657C6.94045 54.4041 9.28759 53.8592 11.6051 53.3782C12.107 53.2998 12.6918 53.8809 13.267 54.147C13.0007 54.7226 12.867 55.5149 12.4338 55.7805C11.0702 56.5475 9.60373 57.0338 8.07804 57.6482C8.2402 57.8008 8.30886 57.9879 8.40237 57.9535C24.7722 59.4691 37.8796 53.108 43.1558 37.8441C43.4173 37.1109 43.615 36.3482 43.6848 35.5263C45.0799 24.2909 42.3513 14.254 35.061 5.52366C34.1129 4.38621 32.825 3.47987 31.6603 2.47517C31.7787 2.21931 31.9609 1.99302 32.0793 1.73717Z" fill="#AEE5D8"/>
</g>
<defs>
<clipPath id="clip0_76_9786">
<rect width="67.4604" height="32.2846" fill="white" transform="translate(57.625 13.5542) rotate(114.825)"/>
</clipPath>
</defs>
</svg>
