<svg width="109" height="176" viewBox="0 0 109 176" fill="none" xmlns="http://www.w3.org/2000/svg">
<g clip-path="url(#clip0_76_9671)">
<path d="M65.8006 0.144668C43.1161 13.8054 20.5342 59.8473 21.9495 87.8943C23.3656 118.23 33.2837 133.234 69.7558 159.424C65.7622 160.032 62.5123 160.317 59.5478 160.885C56.1655 161.446 52.5896 162.061 49.3298 163.071C48.362 163.335 46.8954 164.82 46.8854 165.545C46.8755 166.271 48.5364 167.022 49.5654 166.982C59.407 166.465 69.1874 165.724 79.1919 165.041C82.4418 164.757 84.5809 163.45 85.0285 161.28C86.1362 153.146 87.4376 144.96 88.3212 136.767C88.4429 134.927 87.1178 133.12 86.5058 130.877C78.6725 134.943 80.7419 138.715 79.4084 142.212C77.912 145.873 77.4445 149.494 76.1929 154.053C62.8138 147.704 53.4687 140.134 46.4869 131.317C20.639 99.0952 24.6203 61.8646 51.371 21.1909C54.9147 15.8865 59.3244 10.7072 63.0923 5.46206C63.7235 3.96452 64.3852 2.5791 65.8006 0.144668Z" fill="#D7CFEA"/>
</g>
<defs>
<clipPath id="clip0_76_9671">
<rect width="162.802" height="67.9165" fill="white" transform="matrix(0.263289 0.964717 0.964717 -0.263289 0.28125 18.0264)"/>
</clipPath>
</defs>
</svg>
