<svg width="172" height="33" viewBox="0 0 172 33" fill="none" xmlns="http://www.w3.org/2000/svg">
<path d="M31.6522 11.4583C31.287 10.4808 30.6728 9.77396 29.8758 9.41463C29.51 9.25004 29.1262 9.16663 28.7351 9.16663C27.0664 9.16663 25.3708 10.7222 24.5158 13.0378C23.4576 15.9061 24.0729 18.7157 25.9469 19.5731C26.3237 19.7456 26.7273 19.8333 27.1464 19.8333C28.846 19.8333 30.5735 18.4067 31.4448 16.2836C32.1031 14.6767 32.1806 12.873 31.6522 11.4583Z" fill="#5F36BF"/>
<path d="M7.48424 13.0378C6.62924 10.7222 4.93365 9.16663 3.2649 9.16663C2.87381 9.16663 2.48989 9.25004 2.12414 9.41463C1.32706 9.77396 0.712974 10.4808 0.347724 11.4583C-0.180694 12.873 -0.103193 14.6767 0.555225 16.2836C1.42648 18.4067 3.15398 19.8333 4.85365 19.8333C5.27265 19.8333 5.67623 19.7456 6.05315 19.5731C7.92716 18.7157 8.54241 15.9061 7.48424 13.0378Z" fill="#5F36BF"/>
<path d="M11.1956 12.7168C11.3502 12.7235 11.5062 12.7193 11.6592 12.7042C12.5581 12.6159 13.3709 12.1547 14.0098 11.3702C15.0407 10.1043 15.327 8.12235 15.1099 6.08359C14.778 2.94167 13.1225 0.59675 10.898 0.5C10.898 0.5 10.5804 0.500667 10.4189 0.516083C9.43753 0.613084 8.54544 1.123 7.83911 1.99067C6.81486 3.24909 6.32261 5.12151 6.52219 6.99935C6.85019 10.1058 8.90303 12.617 11.1956 12.7168Z" fill="#5F36BF"/>
<path d="M16.0007 15.1667C10.6673 15.1667 5.33398 21.5063 5.33398 27.5941C5.33398 29.4106 6.24499 30.8717 7.13957 31.4705C8.24441 32.2098 9.02307 32.5001 10.6427 32.5001C12.5671 32.5001 13.0864 31.8269 13.9873 31.233C14.6389 30.8037 15.2017 30.4326 16.0008 30.4326C16.7998 30.4326 17.3626 30.8037 18.0141 31.233C18.915 31.8269 19.4343 32.5001 21.3588 32.5001C22.9783 32.5001 23.7569 32.2098 24.8618 31.4705C25.7564 30.8717 26.6674 29.4106 26.6674 27.5941C26.6674 21.5063 21.334 15.1667 16.0007 15.1667Z" fill="#5F36BF"/>
<path d="M20.3565 12.6887C20.5095 12.7039 20.6656 12.708 20.8201 12.7013C23.1127 12.6016 25.1656 10.0903 25.4935 6.98401C25.6931 5.10618 25.2007 3.23367 24.1765 1.97534C23.4702 1.10767 22.6113 0.623001 21.6298 0.526C21.4683 0.5105 21.1177 0.5 21.1177 0.5C18.8933 0.59675 17.2376 2.92625 16.9058 6.06809C16.6888 8.10693 16.975 10.0888 18.0058 11.3547C18.6448 12.1392 19.4576 12.6004 20.3565 12.6887Z" fill="#5F36BF"/>
<path d="M43.4922 20.7578C43.3568 20.7578 43.2422 20.724 43.1484 20.6562C43.0495 20.5885 42.9323 20.4922 42.7969 20.3672C42.6615 20.2422 42.5104 20.0885 42.3438 19.9062C42.2812 19.8333 42.25 19.7682 42.25 19.7109C42.25 19.6536 42.2812 19.5885 42.3438 19.5156C42.6667 19.151 42.9609 18.8828 43.2266 18.7109C43.2891 18.6693 43.3776 18.6484 43.4922 18.6484C43.8464 18.6484 44.151 18.5156 44.4062 18.25C44.6667 17.9844 44.7917 17.5547 44.7812 16.9609C44.776 16.3203 44.6172 15.8724 44.3047 15.6172C43.9974 15.362 43.5755 15.2344 43.0391 15.2344H42.6641C42.3203 15.2344 42.0859 15.3073 41.9609 15.4531C41.8359 15.599 41.7734 15.849 41.7734 16.2031V24.0859C41.7734 24.2422 41.7396 24.3516 41.6719 24.4141C41.6094 24.4714 41.5 24.5 41.3438 24.5H39.6797C39.5234 24.5 39.4115 24.4714 39.3438 24.4141C39.2812 24.3516 39.25 24.2422 39.25 24.0859V15.3906C39.25 14.8698 39.2969 14.4583 39.3906 14.1562C39.4896 13.849 39.6771 13.6302 39.9531 13.5C40.2344 13.3646 40.6432 13.2969 41.1797 13.2969H43.0391C44.5339 13.2969 45.6406 13.5911 46.3594 14.1797C47.0781 14.763 47.4375 15.6589 47.4375 16.8672C47.4375 17.7734 47.2474 18.513 46.8672 19.0859C46.4922 19.6589 46.0026 20.0807 45.3984 20.3516C44.7995 20.6224 44.1641 20.7578 43.4922 20.7578ZM50.5625 24.6953C49.7969 24.6953 49.1875 24.4818 48.7344 24.0547C48.2865 23.6224 48.0625 23.0286 48.0625 22.2734C48.0625 21.8828 48.1328 21.5208 48.2734 21.1875C48.4193 20.849 48.6693 20.5521 49.0234 20.2969C49.3828 20.0365 49.8828 19.8281 50.5234 19.6719C51.1693 19.5156 51.9922 19.4245 52.9922 19.3984C52.9922 18.9245 52.8724 18.5833 52.6328 18.375C52.3984 18.1667 52.0443 18.0625 51.5703 18.0625C51.1432 18.0625 50.7943 18.1354 50.5234 18.2812C50.2526 18.4271 50.0833 18.526 50.0156 18.5781C49.9427 18.6406 49.8542 18.6641 49.75 18.6484C49.6094 18.6276 49.4583 18.5911 49.2969 18.5391C49.1406 18.487 48.9714 18.4271 48.7891 18.3594C48.763 18.349 48.7344 18.3333 48.7031 18.3125C48.6719 18.2865 48.6536 18.25 48.6484 18.2031C48.6484 18.1771 48.651 18.1458 48.6562 18.1094C48.6615 18.0677 48.6745 17.9948 48.6953 17.8906C48.7161 17.7865 48.7474 17.6589 48.7891 17.5078C48.8307 17.3516 48.8698 17.2318 48.9062 17.1484C48.9531 17.0599 49.0312 16.9766 49.1406 16.8984C49.2292 16.8255 49.4974 16.7083 49.9453 16.5469C50.3932 16.3854 51.0417 16.3047 51.8906 16.3047C54.2292 16.3047 55.3984 17.4427 55.3984 19.7188V24.1406C55.3984 24.2396 55.3698 24.3255 55.3125 24.3984C55.2604 24.4661 55.1693 24.5 55.0391 24.5H53.8672C53.7839 24.5 53.7083 24.4896 53.6406 24.4688C53.5781 24.4427 53.5182 24.3958 53.4609 24.3281L52.9766 23.7031H52.9219C52.6823 24.0521 52.3594 24.3047 51.9531 24.4609C51.5521 24.6172 51.0885 24.6953 50.5625 24.6953ZM51.4219 22.8828C51.901 22.8828 52.263 22.7604 52.5078 22.5156C52.7526 22.2708 52.9089 22.0182 52.9766 21.7578V20.8906C52.2526 20.8906 51.7083 20.9479 51.3438 21.0625C50.9844 21.1719 50.7448 21.3177 50.625 21.5C50.5052 21.6771 50.4453 21.8698 50.4453 22.0781C50.4453 22.3802 50.5391 22.5911 50.7266 22.7109C50.9141 22.8255 51.1458 22.8828 51.4219 22.8828ZM58.8281 23.9297C58.6771 23.6953 58.5156 23.3698 58.3438 22.9531C58.1719 22.5312 58.0026 22.0651 57.8359 21.5547C57.6693 21.0391 57.5156 20.526 57.375 20.0156C57.2396 19.5 57.1302 19.0286 57.0469 18.6016C56.9635 18.1693 56.9219 17.8307 56.9219 17.5859C56.9219 17.4818 56.9505 17.3958 57.0078 17.3281C57.2474 17.0312 57.5885 16.7214 58.0312 16.3984C58.1094 16.3464 58.1797 16.3203 58.2422 16.3203C58.3099 16.3203 58.3802 16.3464 58.4531 16.3984C58.6927 16.5703 58.8932 16.7318 59.0547 16.8828C59.2214 17.0339 59.362 17.1823 59.4766 17.3281C59.5339 17.3958 59.5625 17.4922 59.5625 17.6172V17.5781C59.5625 17.901 59.5807 18.2734 59.6172 18.6953C59.6589 19.1172 59.7161 19.5521 59.7891 20C59.862 20.4479 59.9479 20.875 60.0469 21.2812C60.151 21.6875 60.2656 22.0365 60.3906 22.3281H60.4375C60.5729 22.0365 60.7161 21.6562 60.8672 21.1875C61.0182 20.7188 61.1615 20.224 61.2969 19.7031C61.4375 19.1771 61.5625 18.6823 61.6719 18.2188C61.7812 17.7552 61.8594 17.388 61.9062 17.1172C61.9427 16.9141 62.0234 16.7786 62.1484 16.7109C62.2786 16.6432 62.4583 16.6094 62.6875 16.6094H63.5938C63.8542 16.6094 64.0391 16.6484 64.1484 16.7266C64.263 16.8047 64.3333 16.9349 64.3594 17.1172C64.401 17.3984 64.4766 17.7786 64.5859 18.2578C64.6953 18.7318 64.8177 19.2344 64.9531 19.7656C65.0938 20.2969 65.2344 20.7943 65.375 21.2578C65.5156 21.7214 65.6354 22.0781 65.7344 22.3281H65.7891C65.9453 21.9844 66.0938 21.5417 66.2344 21C66.375 20.4531 66.4896 19.8776 66.5781 19.2734C66.6667 18.6693 66.7109 18.1068 66.7109 17.5859V17.6172C66.7109 17.4922 66.737 17.3958 66.7891 17.3281C66.9089 17.1823 67.0495 17.0339 67.2109 16.8828C67.3724 16.7318 67.5677 16.5703 67.7969 16.3984C67.8698 16.3464 67.9375 16.3203 68 16.3203C68.0729 16.3203 68.1406 16.3464 68.2031 16.3984C68.4375 16.5703 68.6354 16.7318 68.7969 16.8828C68.9583 17.0339 69.0964 17.1823 69.2109 17.3281C69.263 17.3958 69.2891 17.487 69.2891 17.6016C69.2839 17.8568 69.2344 18.1979 69.1406 18.625C69.0469 19.0469 68.9219 19.5104 68.7656 20.0156C68.6146 20.5208 68.4453 21.026 68.2578 21.5312C68.0755 22.0365 67.888 22.5 67.6953 22.9219C67.5078 23.3438 67.3333 23.6797 67.1719 23.9297C67.0677 24.0911 66.9766 24.2135 66.8984 24.2969C66.8203 24.3802 66.724 24.4349 66.6094 24.4609C66.5 24.487 66.3359 24.5 66.1172 24.5H65.2344C64.9896 24.5 64.7969 24.4661 64.6562 24.3984C64.5208 24.3255 64.3932 24.1693 64.2734 23.9297C64.2005 23.7891 64.112 23.5547 64.0078 23.2266C63.9036 22.8932 63.7969 22.5312 63.6875 22.1406C63.5781 21.7448 63.4818 21.375 63.3984 21.0312C63.3151 20.6875 63.2604 20.4349 63.2344 20.2734C63.2083 20.1172 63.1797 19.9271 63.1484 19.7031C63.1224 19.4792 63.1042 19.3021 63.0938 19.1719H63.0547C63.0495 19.3021 63.0312 19.4792 63 19.7031C62.974 19.9219 62.9453 20.1146 62.9141 20.2812C62.8828 20.4271 62.8255 20.6536 62.7422 20.9609C62.6589 21.263 62.5573 21.599 62.4375 21.9688C62.3229 22.3333 62.2005 22.6901 62.0703 23.0391C61.9453 23.388 61.8255 23.6849 61.7109 23.9297C61.5964 24.1693 61.4635 24.3255 61.3125 24.3984C61.1667 24.4661 60.9323 24.5 60.6094 24.5H59.7031C59.4479 24.5 59.2734 24.4609 59.1797 24.3828C59.0911 24.3047 58.974 24.1536 58.8281 23.9297ZM56.9219 17.5703V17.5859C56.9219 17.5964 56.9219 17.6068 56.9219 17.6172V17.5703ZM69.2891 17.5859V17.6172V17.6016C69.2891 17.5964 69.2891 17.5911 69.2891 17.5859ZM73.125 24.6953C72.5677 24.6953 72.1042 24.6484 71.7344 24.5547C71.3698 24.4609 71.0755 24.349 70.8516 24.2188C70.6328 24.0833 70.4609 23.9609 70.3359 23.8516C70.2422 23.763 70.2318 23.6641 70.3047 23.5547L71.1016 22.375C71.2161 22.2083 71.3464 22.1979 71.4922 22.3438C71.6432 22.4896 71.8464 22.6328 72.1016 22.7734C72.362 22.9089 72.6849 22.9766 73.0703 22.9766C73.4141 22.9766 73.6953 22.9193 73.9141 22.8047C74.138 22.6849 74.25 22.513 74.25 22.2891C74.25 22.1328 74.2005 22.0052 74.1016 21.9062C74.0026 21.8073 73.8281 21.7057 73.5781 21.6016C73.3281 21.4974 72.9792 21.3646 72.5312 21.2031C71.8698 20.9635 71.3698 20.6745 71.0312 20.3359C70.6927 19.9974 70.5234 19.5026 70.5234 18.8516C70.5234 18.2526 70.6875 17.7656 71.0156 17.3906C71.349 17.0156 71.7734 16.7422 72.2891 16.5703C72.8099 16.3932 73.3516 16.3047 73.9141 16.3047C74.6276 16.3047 75.1276 16.3724 75.4141 16.5078C75.7057 16.638 75.8932 16.7396 75.9766 16.8125C76.0547 16.8802 76.1094 16.9583 76.1406 17.0469C76.2083 17.25 76.2604 17.5182 76.2969 17.8516C76.3177 18.0443 76.2682 18.1719 76.1484 18.2344C76.0859 18.2708 75.987 18.3099 75.8516 18.3516C75.7161 18.3932 75.5807 18.4297 75.4453 18.4609C75.3099 18.4922 75.2083 18.5078 75.1406 18.5078C75.1198 18.5078 75.0964 18.5026 75.0703 18.4922C75.0495 18.4766 75.0104 18.4427 74.9531 18.3906C74.8854 18.3229 74.7682 18.2448 74.6016 18.1562C74.4401 18.0677 74.2161 18.0234 73.9297 18.0234C73.6484 18.0234 73.4115 18.0703 73.2188 18.1641C73.0312 18.2526 72.9375 18.4115 72.9375 18.6406C72.9375 18.8906 73.0573 19.0781 73.2969 19.2031C73.5417 19.3281 73.9427 19.4896 74.5 19.6875C74.9375 19.8385 75.3177 20.0052 75.6406 20.1875C75.9688 20.3646 76.2214 20.599 76.3984 20.8906C76.5755 21.1771 76.6641 21.5651 76.6641 22.0547C76.6641 22.6901 76.4896 23.2031 76.1406 23.5938C75.7969 23.9792 75.3542 24.2604 74.8125 24.4375C74.276 24.6094 73.7135 24.6953 73.125 24.6953ZM88.8438 20C89.1719 20.3125 89.4635 20.5859 89.7188 20.8203C90.0625 20.3359 90.2839 19.8464 90.3828 19.3516C90.4818 18.8568 90.5312 18.3802 90.5312 17.9219V17.875C90.5312 17.75 90.5573 17.6536 90.6094 17.5859C90.8125 17.3099 91.1276 17 91.5547 16.6562C91.6276 16.6042 91.6927 16.5781 91.75 16.5781C91.8125 16.5781 91.875 16.6042 91.9375 16.6562C92.3542 16.9844 92.6693 17.2943 92.8828 17.5859C92.9349 17.6536 92.9609 17.75 92.9609 17.875V17.8828C92.9609 18.5703 92.8255 19.2943 92.5547 20.0547C92.2839 20.8099 91.875 21.5234 91.3281 22.1953C91.5938 22.388 91.8099 22.5104 91.9766 22.5625C92.1432 22.6146 92.3125 22.6406 92.4844 22.6406C92.6615 22.6406 92.8125 22.6302 92.9375 22.6094C93.0677 22.5885 93.1771 22.5677 93.2656 22.5469C93.4375 22.5 93.5443 22.5547 93.5859 22.7109L93.9609 24.0469C94.0078 24.2031 93.9661 24.3125 93.8359 24.375C93.7057 24.4375 93.5104 24.5026 93.25 24.5703C92.9948 24.6432 92.6771 24.6797 92.2969 24.6797C92.0417 24.6797 91.7943 24.6589 91.5547 24.6172C91.3151 24.5807 91.0521 24.4922 90.7656 24.3516C90.4792 24.2109 90.138 23.9922 89.7422 23.6953C89.2109 24.0651 88.6641 24.3229 88.1016 24.4688C87.5443 24.6094 86.9219 24.6797 86.2344 24.6797C85.4688 24.6797 84.776 24.5521 84.1562 24.2969C83.5417 24.0365 83.0521 23.651 82.6875 23.1406C82.3281 22.6302 82.1484 22 82.1484 21.25C82.1484 20.5833 82.3281 20.0052 82.6875 19.5156C83.0469 19.026 83.5312 18.5938 84.1406 18.2188C83.8333 17.7917 83.6224 17.3984 83.5078 17.0391C83.3932 16.6797 83.3359 16.2969 83.3359 15.8906C83.3359 15.3438 83.4792 14.862 83.7656 14.4453C84.0521 14.0286 84.4505 13.7031 84.9609 13.4688C85.4714 13.2292 86.0625 13.1094 86.7344 13.1094C87.7865 13.1094 88.5755 13.3411 89.1016 13.8047C89.6328 14.2682 89.8984 14.8932 89.8984 15.6797C89.8984 16.1484 89.8099 16.5495 89.6328 16.8828C89.4557 17.2109 89.1849 17.5104 88.8203 17.7812C88.4557 18.0521 87.987 18.3281 87.4141 18.6094C87.612 18.8125 87.8281 19.0286 88.0625 19.2578C88.3021 19.487 88.5625 19.7344 88.8438 20ZM85.6328 15.875C85.6328 16.276 85.8125 16.724 86.1719 17.2188C86.7552 16.9323 87.1432 16.6875 87.3359 16.4844C87.5339 16.2812 87.6328 16.0469 87.6328 15.7812C87.6328 15.526 87.5573 15.3177 87.4062 15.1562C87.2604 14.9948 87.026 14.9141 86.7031 14.9141C86.3125 14.9141 86.0365 15.0104 85.875 15.2031C85.7135 15.3906 85.6328 15.6146 85.6328 15.875ZM84.6484 21.1484C84.6484 21.6432 84.8151 22.0417 85.1484 22.3438C85.487 22.6458 85.9141 22.7969 86.4297 22.7969C86.7422 22.7969 87.0339 22.7604 87.3047 22.6875C87.5755 22.6146 87.849 22.4922 88.125 22.3203C87.8229 22.0495 87.4948 21.7448 87.1406 21.4062C86.7969 21.0833 86.4818 20.7812 86.1953 20.5C85.9141 20.2188 85.6562 19.9557 85.4219 19.7109C85.1354 19.9349 84.9349 20.1589 84.8203 20.3828C84.7057 20.6068 84.6484 20.862 84.6484 21.1484ZM101.641 23.7734C101.417 23.3516 101.188 22.8177 100.953 22.1719C100.719 21.5208 100.495 20.8229 100.281 20.0781C100.068 19.3333 99.8776 18.599 99.7109 17.875C99.5443 17.1458 99.4115 16.4844 99.3125 15.8906C99.2188 15.2969 99.1719 14.8333 99.1719 14.5C99.1719 14.3646 99.2005 14.2578 99.2578 14.1797C99.3776 14.013 99.5234 13.8411 99.6953 13.6641C99.8724 13.4818 100.081 13.2917 100.32 13.0938C100.398 13.0312 100.471 13 100.539 13C100.607 13 100.674 13.0312 100.742 13.0938C100.987 13.2917 101.195 13.4818 101.367 13.6641C101.539 13.8411 101.685 14.013 101.805 14.1797C101.862 14.2578 101.891 14.3724 101.891 14.5234V14.4922C101.891 14.8359 101.935 15.3021 102.023 15.8906C102.117 16.474 102.237 17.1146 102.383 17.8125C102.534 18.5052 102.695 19.1901 102.867 19.8672C103.044 20.5391 103.219 21.138 103.391 21.6641H103.438C103.719 20.9661 103.982 20.2083 104.227 19.3906C104.471 18.5729 104.701 17.737 104.914 16.8828C105.128 16.0286 105.328 15.1979 105.516 14.3906C105.573 14.1562 105.669 13.9948 105.805 13.9062C105.945 13.8125 106.164 13.7656 106.461 13.7656H107.398C107.664 13.7656 107.862 13.8047 107.992 13.8828C108.122 13.9609 108.216 14.1302 108.273 14.3906C108.409 14.9948 108.562 15.6328 108.734 16.3047C108.906 16.9766 109.083 17.6458 109.266 18.3125C109.453 18.974 109.641 19.5938 109.828 20.1719C110.021 20.75 110.203 21.2474 110.375 21.6641H110.422C110.641 21.1693 110.836 20.5859 111.008 19.9141C111.185 19.2422 111.333 18.5573 111.453 17.8594C111.578 17.1562 111.672 16.5052 111.734 15.9062C111.802 15.3073 111.836 14.8359 111.836 14.4922V14.5234C111.836 14.3724 111.862 14.2578 111.914 14.1797C112.164 13.8359 112.508 13.474 112.945 13.0938C113.029 13.0312 113.102 13 113.164 13C113.221 13 113.289 13.0312 113.367 13.0938C113.602 13.2917 113.802 13.4818 113.969 13.6641C114.135 13.8411 114.279 14.013 114.398 14.1797C114.451 14.263 114.477 14.375 114.477 14.5156C114.477 14.9531 114.427 15.4792 114.328 16.0938C114.229 16.7083 114.094 17.3646 113.922 18.0625C113.755 18.7552 113.565 19.4479 113.352 20.1406C113.143 20.8333 112.922 21.4818 112.688 22.0859C112.458 22.6849 112.232 23.1927 112.008 23.6094C111.82 23.9583 111.651 24.1953 111.5 24.3203C111.354 24.4401 111.143 24.5 110.867 24.5H109.906C109.672 24.5 109.474 24.4479 109.312 24.3438C109.156 24.2396 108.992 24.0443 108.82 23.7578C108.69 23.5391 108.539 23.2318 108.367 22.8359C108.201 22.4401 108.031 22.0104 107.859 21.5469C107.693 21.0781 107.542 20.625 107.406 20.1875C107.271 19.75 107.172 19.3802 107.109 19.0781C107.036 18.7344 106.974 18.4036 106.922 18.0859C106.875 17.763 106.846 17.5104 106.836 17.3281H106.773C106.763 17.5104 106.729 17.763 106.672 18.0859C106.62 18.4036 106.555 18.7344 106.477 19.0781C106.398 19.4219 106.294 19.8151 106.164 20.2578C106.034 20.7005 105.891 21.1458 105.734 21.5938C105.578 22.0417 105.422 22.4557 105.266 22.8359C105.109 23.2161 104.964 23.5182 104.828 23.7422C104.677 23.9974 104.51 24.1875 104.328 24.3125C104.151 24.4375 103.904 24.5 103.586 24.5H102.703C102.427 24.5 102.219 24.4505 102.078 24.3516C101.938 24.2526 101.792 24.0599 101.641 23.7734ZM114.477 14.4922V14.5234V14.5156C114.477 14.5052 114.477 14.4974 114.477 14.4922ZM99.1719 14.4922V14.5V14.5234V14.4922ZM118.477 24.0859C118.477 24.2422 118.443 24.3516 118.375 24.4141C118.312 24.4714 118.203 24.5 118.047 24.5H116.438C116.281 24.5 116.169 24.4714 116.102 24.4141C116.039 24.3516 116.008 24.2422 116.008 24.0859V13.5156C116.008 13.3906 116.034 13.2943 116.086 13.2266C116.305 12.9401 116.625 12.6302 117.047 12.2969C117.12 12.2448 117.185 12.2188 117.242 12.2188C117.31 12.2188 117.375 12.2448 117.438 12.2969C117.661 12.4688 117.849 12.6302 118 12.7812C118.156 12.9323 118.289 13.0807 118.398 13.2266C118.451 13.2943 118.477 13.3906 118.477 13.5156V17.3047H118.508C118.622 17.1536 118.771 17.0026 118.953 16.8516C119.135 16.6953 119.378 16.5651 119.68 16.4609C119.987 16.3568 120.378 16.3047 120.852 16.3047C121.331 16.3047 121.792 16.4036 122.234 16.6016C122.677 16.7995 123.039 17.1328 123.32 17.6016C123.602 18.0703 123.742 18.7109 123.742 19.5234V24.0859C123.742 24.2422 123.708 24.3516 123.641 24.4141C123.578 24.4714 123.469 24.5 123.312 24.5H121.703C121.547 24.5 121.435 24.4714 121.367 24.4141C121.305 24.3516 121.273 24.2422 121.273 24.0859V19.9531C121.273 19.375 121.154 18.9557 120.914 18.6953C120.674 18.4297 120.349 18.2969 119.938 18.2969C119.531 18.2969 119.216 18.3854 118.992 18.5625C118.768 18.7396 118.596 18.9635 118.477 19.2344V24.0859ZM125.492 13.875C125.492 13.8073 125.513 13.7474 125.555 13.6953C125.596 13.6432 125.651 13.5755 125.719 13.4922C125.865 13.3255 126.034 13.151 126.227 12.9688C126.419 12.7812 126.615 12.6016 126.812 12.4297C126.938 12.3307 127.031 12.2812 127.094 12.2812C127.156 12.2812 127.253 12.3307 127.383 12.4297C127.805 12.7943 128.164 13.1484 128.461 13.4922C128.529 13.5703 128.583 13.638 128.625 13.6953C128.672 13.7474 128.695 13.8073 128.695 13.875C128.695 13.9427 128.672 14.0026 128.625 14.0547C128.583 14.1068 128.526 14.1771 128.453 14.2656C128.312 14.4271 128.148 14.6016 127.961 14.7891C127.773 14.9714 127.581 15.1458 127.383 15.3125C127.31 15.375 127.253 15.4167 127.211 15.4375C127.169 15.4531 127.13 15.4609 127.094 15.4609C127.057 15.4609 127.018 15.4531 126.977 15.4375C126.94 15.4167 126.88 15.375 126.797 15.3125C126.589 15.1458 126.393 14.9714 126.211 14.7891C126.029 14.6016 125.865 14.4219 125.719 14.25C125.651 14.1667 125.596 14.1016 125.555 14.0547C125.513 14.0026 125.492 13.9427 125.492 13.875ZM128.32 24.0859C128.32 24.2422 128.286 24.3516 128.219 24.4141C128.156 24.4714 128.047 24.5 127.891 24.5H126.281C126.125 24.5 126.013 24.4714 125.945 24.4141C125.883 24.3516 125.852 24.2422 125.852 24.0859V16.9141C125.852 16.7578 125.883 16.651 125.945 16.5938C126.013 16.5312 126.125 16.5 126.281 16.5H127.891C128.047 16.5 128.156 16.5312 128.219 16.5938C128.286 16.651 128.32 16.7578 128.32 16.9141V24.0859ZM132.672 24.6953C132.115 24.6953 131.651 24.6484 131.281 24.5547C130.917 24.4609 130.622 24.349 130.398 24.2188C130.18 24.0833 130.008 23.9609 129.883 23.8516C129.789 23.763 129.779 23.6641 129.852 23.5547L130.648 22.375C130.763 22.2083 130.893 22.1979 131.039 22.3438C131.19 22.4896 131.393 22.6328 131.648 22.7734C131.909 22.9089 132.232 22.9766 132.617 22.9766C132.961 22.9766 133.242 22.9193 133.461 22.8047C133.685 22.6849 133.797 22.513 133.797 22.2891C133.797 22.1328 133.747 22.0052 133.648 21.9062C133.549 21.8073 133.375 21.7057 133.125 21.6016C132.875 21.4974 132.526 21.3646 132.078 21.2031C131.417 20.9635 130.917 20.6745 130.578 20.3359C130.24 19.9974 130.07 19.5026 130.07 18.8516C130.07 18.2526 130.234 17.7656 130.562 17.3906C130.896 17.0156 131.32 16.7422 131.836 16.5703C132.357 16.3932 132.898 16.3047 133.461 16.3047C134.174 16.3047 134.674 16.3724 134.961 16.5078C135.253 16.638 135.44 16.7396 135.523 16.8125C135.602 16.8802 135.656 16.9583 135.688 17.0469C135.755 17.25 135.807 17.5182 135.844 17.8516C135.865 18.0443 135.815 18.1719 135.695 18.2344C135.633 18.2708 135.534 18.3099 135.398 18.3516C135.263 18.3932 135.128 18.4297 134.992 18.4609C134.857 18.4922 134.755 18.5078 134.688 18.5078C134.667 18.5078 134.643 18.5026 134.617 18.4922C134.596 18.4766 134.557 18.4427 134.5 18.3906C134.432 18.3229 134.315 18.2448 134.148 18.1562C133.987 18.0677 133.763 18.0234 133.477 18.0234C133.195 18.0234 132.958 18.0703 132.766 18.1641C132.578 18.2526 132.484 18.4115 132.484 18.6406C132.484 18.8906 132.604 19.0781 132.844 19.2031C133.089 19.3281 133.49 19.4896 134.047 19.6875C134.484 19.8385 134.865 20.0052 135.188 20.1875C135.516 20.3646 135.768 20.599 135.945 20.8906C136.122 21.1771 136.211 21.5651 136.211 22.0547C136.211 22.6901 136.036 23.2031 135.688 23.5938C135.344 23.9792 134.901 24.2604 134.359 24.4375C133.823 24.6094 133.26 24.6953 132.672 24.6953ZM140.211 24.0859C140.211 24.2422 140.177 24.3516 140.109 24.4141C140.047 24.4714 139.938 24.5 139.781 24.5H138.172C138.016 24.5 137.904 24.4714 137.836 24.4141C137.773 24.3516 137.742 24.2422 137.742 24.0859V13.5156C137.742 13.3906 137.768 13.2943 137.82 13.2266C138.039 12.9401 138.359 12.6302 138.781 12.2969C138.854 12.2448 138.919 12.2188 138.977 12.2188C139.044 12.2188 139.109 12.2448 139.172 12.2969C139.396 12.4688 139.583 12.6302 139.734 12.7812C139.891 12.9323 140.023 13.0807 140.133 13.2266C140.185 13.2943 140.211 13.3906 140.211 13.5156V19.6484H140.305C141.096 19.6484 141.633 19.5078 141.914 19.2266C142.201 18.9401 142.344 18.5443 142.344 18.0391V17.6172C142.344 17.4922 142.37 17.3958 142.422 17.3281C142.641 17.0417 142.961 16.7318 143.383 16.3984C143.456 16.3464 143.521 16.3203 143.578 16.3203C143.646 16.3203 143.711 16.3464 143.773 16.3984C143.997 16.5703 144.185 16.7318 144.336 16.8828C144.492 17.0339 144.625 17.1823 144.734 17.3281C144.786 17.3958 144.812 17.4922 144.812 17.6172V18.0391C144.812 18.3359 144.753 18.6641 144.633 19.0234C144.518 19.3828 144.307 19.7005 144 19.9766C143.693 20.2526 143.255 20.4141 142.688 20.4609V20.5C143.125 20.6927 143.503 20.9479 143.82 21.2656C144.138 21.5833 144.404 21.9245 144.617 22.2891C144.831 22.6484 144.995 22.9948 145.109 23.3281C145.229 23.6562 145.307 23.9349 145.344 24.1641C145.38 24.388 145.305 24.5 145.117 24.5H143.062C142.885 24.5 142.784 24.3932 142.758 24.1797C142.721 23.9349 142.641 23.6484 142.516 23.3203C142.396 22.987 142.232 22.6615 142.023 22.3438C141.82 22.026 141.573 21.763 141.281 21.5547C140.995 21.3411 140.669 21.2344 140.305 21.2344H140.211V24.0859ZM150.648 24.6953C149.768 24.6953 149.003 24.5547 148.352 24.2734C147.701 23.987 147.195 23.5443 146.836 22.9453C146.477 22.3464 146.297 21.5729 146.297 20.625C146.297 19.2031 146.661 18.1276 147.391 17.3984C148.12 16.6693 149.089 16.3047 150.297 16.3047C151.083 16.3047 151.747 16.4453 152.289 16.7266C152.836 17.0078 153.25 17.3958 153.531 17.8906C153.818 18.3854 153.961 18.9505 153.961 19.5859C153.961 20.2057 153.802 20.638 153.484 20.8828C153.167 21.1276 152.703 21.25 152.094 21.25H148.742C148.784 21.7865 148.979 22.1953 149.328 22.4766C149.682 22.7578 150.161 22.8984 150.766 22.8984C151.245 22.8984 151.628 22.8281 151.914 22.6875C152.206 22.5417 152.409 22.4271 152.523 22.3438C152.622 22.2708 152.734 22.237 152.859 22.2422C152.958 22.2422 153.099 22.263 153.281 22.3047C153.469 22.3411 153.654 22.4115 153.836 22.5156C153.966 22.5833 154.031 22.6771 154.031 22.7969C154.031 22.8646 154.018 22.9609 153.992 23.0859C153.977 23.1589 153.951 23.2656 153.914 23.4062C153.878 23.5417 153.831 23.6693 153.773 23.7891C153.742 23.8464 153.693 23.901 153.625 23.9531C153.521 24.026 153.352 24.1224 153.117 24.2422C152.888 24.362 152.573 24.4661 152.172 24.5547C151.771 24.6484 151.263 24.6953 150.648 24.6953ZM148.727 19.6484H151.273C151.539 19.6484 151.672 19.526 151.672 19.2812C151.672 18.9115 151.555 18.6016 151.32 18.3516C151.091 18.0964 150.745 17.9688 150.281 17.9688C149.776 17.9688 149.404 18.1302 149.164 18.4531C148.93 18.776 148.784 19.1745 148.727 19.6484ZM158.148 17.9844H158.18C158.57 16.901 159.273 16.3594 160.289 16.3594C160.419 16.3594 160.526 16.3672 160.609 16.3828C160.693 16.3932 160.75 16.4036 160.781 16.4141C160.859 16.4401 160.898 16.5 160.898 16.5938V18.4766C160.898 18.638 160.805 18.6823 160.617 18.6094C160.555 18.5833 160.464 18.5573 160.344 18.5312C160.229 18.5 160.068 18.4844 159.859 18.4844C159.323 18.4844 158.904 18.6823 158.602 19.0781C158.299 19.4688 158.148 20.0026 158.148 20.6797V24.0859C158.148 24.2422 158.115 24.3516 158.047 24.4141C157.984 24.4714 157.875 24.5 157.719 24.5H156.109C155.953 24.5 155.841 24.4714 155.773 24.4141C155.711 24.3516 155.68 24.2422 155.68 24.0859V17.5391C155.68 17.4141 155.706 17.3177 155.758 17.25C155.867 17.1042 155.997 16.9557 156.148 16.8047C156.305 16.6536 156.495 16.4922 156.719 16.3203C156.76 16.2891 156.802 16.2682 156.844 16.2578C156.885 16.2474 156.922 16.2422 156.953 16.2422C157.026 16.2422 157.099 16.2682 157.172 16.3203C157.604 16.6589 157.906 16.9479 158.078 17.1875C158.125 17.25 158.148 17.3229 158.148 17.4062V17.9844ZM164.453 24.6953C163.896 24.6953 163.432 24.6484 163.062 24.5547C162.698 24.4609 162.404 24.349 162.18 24.2188C161.961 24.0833 161.789 23.9609 161.664 23.8516C161.57 23.763 161.56 23.6641 161.633 23.5547L162.43 22.375C162.544 22.2083 162.674 22.1979 162.82 22.3438C162.971 22.4896 163.174 22.6328 163.43 22.7734C163.69 22.9089 164.013 22.9766 164.398 22.9766C164.742 22.9766 165.023 22.9193 165.242 22.8047C165.466 22.6849 165.578 22.513 165.578 22.2891C165.578 22.1328 165.529 22.0052 165.43 21.9062C165.331 21.8073 165.156 21.7057 164.906 21.6016C164.656 21.4974 164.307 21.3646 163.859 21.2031C163.198 20.9635 162.698 20.6745 162.359 20.3359C162.021 19.9974 161.852 19.5026 161.852 18.8516C161.852 18.2526 162.016 17.7656 162.344 17.3906C162.677 17.0156 163.102 16.7422 163.617 16.5703C164.138 16.3932 164.68 16.3047 165.242 16.3047C165.956 16.3047 166.456 16.3724 166.742 16.5078C167.034 16.638 167.221 16.7396 167.305 16.8125C167.383 16.8802 167.438 16.9583 167.469 17.0469C167.536 17.25 167.589 17.5182 167.625 17.8516C167.646 18.0443 167.596 18.1719 167.477 18.2344C167.414 18.2708 167.315 18.3099 167.18 18.3516C167.044 18.3932 166.909 18.4297 166.773 18.4609C166.638 18.4922 166.536 18.5078 166.469 18.5078C166.448 18.5078 166.424 18.5026 166.398 18.4922C166.378 18.4766 166.339 18.4427 166.281 18.3906C166.214 18.3229 166.096 18.2448 165.93 18.1562C165.768 18.0677 165.544 18.0234 165.258 18.0234C164.977 18.0234 164.74 18.0703 164.547 18.1641C164.359 18.2526 164.266 18.4115 164.266 18.6406C164.266 18.8906 164.385 19.0781 164.625 19.2031C164.87 19.3281 165.271 19.4896 165.828 19.6875C166.266 19.8385 166.646 20.0052 166.969 20.1875C167.297 20.3646 167.549 20.599 167.727 20.8906C167.904 21.1771 167.992 21.5651 167.992 22.0547C167.992 22.6901 167.818 23.2031 167.469 23.5938C167.125 23.9792 166.682 24.2604 166.141 24.4375C165.604 24.6094 165.042 24.6953 164.453 24.6953Z" fill="#5F36BF"/>
</svg>
